<svg id="Layer_1" data-name="Layer 1" xmlns="http://www.w3.org/2000/svg" viewBox="0 0 512 512"><defs><style>.cls-1{fill:#b4bbcc;}.cls-2{fill:#fff;}.cls-3{opacity:0.1;isolation:isolate;}.cls-4{fill:#a5eb78;}</style></defs><title>Done</title><path class="cls-1" d="M398.82,62.17H113.18a51.12,51.12,0,0,0-51.12,51.12V398.93a51.12,51.12,0,0,0,51.12,51.12H398.82a51.12,51.12,0,0,0,51.12-51.12V113.29A51.12,51.12,0,0,0,398.82,62.17Z"/><path class="cls-2" d="M375.46,113.93H136.54a22.72,22.72,0,0,0-22.72,22.72V375.57a22.72,22.72,0,0,0,22.72,22.72H375.45a22.72,22.72,0,0,0,22.73-22.72V136.66A22.73,22.73,0,0,0,375.46,113.93Z"/><path class="cls-3" d="M136.71,159.55a22.73,22.73,0,0,1,22.73-22.72H398.18v-.17a22.72,22.72,0,0,0-22.73-22.73H136.54a22.72,22.72,0,0,0-22.72,22.73V375.57a22.72,22.72,0,0,0,22.72,22.72h.17Z"/><path class="cls-4" d="M215.37,369.29a21.48,21.48,0,0,1-15.32-6.5l-72-73.17a23.58,23.58,0,0,1-.39-32.35,21.31,21.31,0,0,1,31-.41l52.65,53.49C232.4,279,276.37,224,351.22,174A21.42,21.42,0,0,1,381.53,181c6.54,10.63,3.56,24.78-6.65,31.59C274.35,279.64,235.21,356.24,234.82,357a22,22,0,0,1-16,12A21.26,21.26,0,0,1,215.37,369.29Z"/></svg>