<svg id="Layer_1" data-name="Layer 1" xmlns="http://www.w3.org/2000/svg" viewBox="0 0 512 512"><defs><style>.cls-1{fill:#b4bbcc;}.cls-2{fill:#fff;}.cls-3{opacity:0.1;isolation:isolate;}.cls-4{font-size:399.47px;fill:red;font-family:MVBoli, MV Boli;}</style></defs><title>NotDone</title><path class="cls-1" d="M388.52,62.17H102.87a51.12,51.12,0,0,0-51.11,51.12V398.93a51.12,51.12,0,0,0,51.11,51.12H388.52a51.12,51.12,0,0,0,51.11-51.12V113.29A51.12,51.12,0,0,0,388.52,62.17Z"/><path class="cls-2" d="M365.15,113.93H126.24a22.73,22.73,0,0,0-22.73,22.73V375.57a22.73,22.73,0,0,0,22.73,22.72H365.15a22.73,22.73,0,0,0,22.73-22.72V136.66A22.73,22.73,0,0,0,365.15,113.93Z"/><path class="cls-3" d="M126.41,159.55a22.72,22.72,0,0,1,22.73-22.72H387.88v-.17a22.73,22.73,0,0,0-22.73-22.73H126.24a22.73,22.73,0,0,0-22.73,22.73V375.57a22.73,22.73,0,0,0,22.73,22.72h.17Z"/><text class="cls-4" transform="translate(142 355.75)">x</text></svg>